<svg xmlns="http://www.w3.org/2000/svg" width="1200" height="630" viewBox="0 0 1200 630"><rect width="1200" height="630" fill="#f5f3ed"/><circle cx="950" cy="260" r="230" fill="#3978dc" opacity=".08"/><g font-family="Arial, Helvetica, sans-serif"><text x="64" y="80" font-size="19" letter-spacing="3" fill="#66645e">iOS AGENT SKILL / GUIDED SERIES</text><text x="64" y="185" font-size="22" fill="#3978dc">LEVEL 00</text><text x="64" y="259" font-size="53" font-weight="700" fill="#202320">Orientation</text><text x="64" y="315" font-size="25" fill="#5c625c">Start with a checkable idea.</text><g color="#3978dc"><circle cx="940" cy="258" r="112" fill="none" stroke="currentColor" stroke-width="4"/><path d="m940 160 30 100-30 96-30-96Z" fill="currentColor"/></g><rect x="64" y="465" width="330" height="88" rx="22" fill="white"/><circle cx="96" cy="509" r="13" fill="#3978dc"/><text x="123" y="517" font-size="20" fill="#343a34">IDEA</text><path d="m405 509h14m-5-5 5 5-5 5" fill="none" stroke="#3978dc" stroke-width="2"/><rect x="429" y="465" width="330" height="88" rx="22" fill="white"/><circle cx="461" cy="509" r="13" fill="#3978dc"/><text x="488" y="517" font-size="20" fill="#343a34">BRIEF</text><path d="m770 509h14m-5-5 5 5-5 5" fill="none" stroke="#3978dc" stroke-width="2"/><rect x="794" y="465" width="330" height="88" rx="22" fill="white"/><circle cx="826" cy="509" r="13" fill="#3978dc"/><text x="853" y="517" font-size="20" fill="#343a34">EVIDENCE</text></g></svg>